<svg width="50" height="50" viewBox="0 0 50 50" fill="none" xmlns="http://www.w3.org/2000/svg">
<path d="M50 25C50 11.1929 38.8071 0 25 0C11.1929 0 0 11.1929 0 25C0 38.8071 11.1929 50 25 50C38.8071 50 50 38.8071 50 25Z" fill="white"/>
<path fill-rule="evenodd" clip-rule="evenodd" d="M37.2343 25.2841C37.2343 24.3978 37.1547 23.5455 37.007 22.7273H25.2343V27.5625H31.9615C31.6718 29.125 30.7911 30.4489 29.4672 31.3353V34.4716H33.507C35.8706 32.2955 37.2343 29.0909 37.2343 25.2841Z" fill="#4285F4"/>
<path fill-rule="evenodd" clip-rule="evenodd" d="M25.2337 37.4999C28.6087 37.4999 31.4383 36.3806 33.5065 34.4715L29.4667 31.3351C28.3474 32.0851 26.9155 32.5283 25.2337 32.5283C21.978 32.5283 19.2223 30.3294 18.2394 27.3749H14.0632V30.6135C16.1201 34.6988 20.3473 37.4999 25.2337 37.4999Z" fill="#34A853"/>
<path fill-rule="evenodd" clip-rule="evenodd" d="M18.2399 27.3749C17.9899 26.6249 17.8479 25.8237 17.8479 24.9999C17.8479 24.176 17.9899 23.3749 18.2399 22.6249V19.3862H14.0638C13.2172 21.0737 12.7343 22.9828 12.7343 24.9999C12.7343 27.0169 13.2172 28.926 14.0638 30.6135L18.2399 27.3749Z" fill="#FBBC05"/>
<path fill-rule="evenodd" clip-rule="evenodd" d="M25.2337 17.4716C27.0689 17.4716 28.7167 18.1023 30.0121 19.3409L33.5974 15.7557C31.4326 13.7386 28.603 12.5 25.2337 12.5C20.3473 12.5 16.1201 15.3011 14.0632 19.3864L18.2394 22.625C19.2223 19.6705 21.978 17.4716 25.2337 17.4716Z" fill="#EA4335"/>
</svg>
